<svg width="48" height="48" viewBox="0 0 48 48" fill="none" xmlns="http://www.w3.org/2000/svg">
<path fill-rule="evenodd" clip-rule="evenodd" d="M22.4511 19.8397C22.4511 26.4951 22.4338 27.6597 22.336 27.5499C22.2727 27.4788 20.998 25.2731 19.5034 22.6485C14.93 14.6175 14.6422 14.1209 14.5623 14.1209C14.4652 14.1209 12.0022 15.5239 11.9537 15.6068C11.9341 15.6404 12.7 17.0396 13.6555 18.7163C14.6111 20.393 16.3424 23.4298 17.5027 25.4649C18.6631 27.4999 19.5943 29.184 19.5723 29.2074C19.5501 29.2308 16.5153 27.4807 12.8284 25.3186L6.12477 21.3872L5.37164 22.7079C4.95746 23.4343 4.61869 24.056 4.61887 24.0897C4.61906 24.1234 4.92976 24.3327 5.30953 24.555C5.68931 24.7774 8.71255 26.547 12.0279 28.4875L18.0558 32.0157L10.2279 32.0599L2.39999 32.1041V33.6506V35.197L10.3612 35.2196L18.3224 35.2421L21.1374 32.4138C22.6856 30.8583 23.9743 29.5855 24.0012 29.5855C24.0464 29.5855 26.3607 31.8866 28.2279 33.7879C28.6653 34.2333 29.1779 34.7419 29.3669 34.9181L29.7105 35.2386L37.6553 35.2178L45.6 35.197V33.6506V32.1041L37.7721 32.0599L29.9442 32.0157L36.6632 28.0833C40.3586 25.9204 43.3726 24.1077 43.3608 24.0549C43.3491 24.0023 43.0193 23.3939 42.6279 22.7032C42.1217 21.8098 41.8786 21.4575 41.7858 21.4829C41.6543 21.5188 29.5326 28.5924 28.793 29.0648C28.5742 29.2045 28.3954 29.2806 28.3954 29.2338C28.3954 29.1871 30.1108 26.1412 32.2075 22.4654C34.3041 18.7895 36.0278 15.7397 36.0377 15.6881C36.0551 15.5976 33.7148 14.1301 33.5441 14.1243C33.4755 14.1221 27.5056 24.3469 26.079 26.9102C25.8564 27.3099 25.6462 27.638 25.6116 27.6392C25.577 27.6404 25.5488 24.1221 25.5488 19.8207V12H24H22.4511V19.8397Z" fill="#F7FF98"/>
</svg>
